<?xml version="1.0" encoding="UTF-8" standalone="no"?>
<!DOCTYPE svg PUBLIC "-//W3C//DTD SVG 1.1//EN" "http://www.w3.org/Graphics/SVG/1.1/DTD/svg11.dtd">
<svg width="100%" height="100%" viewBox="0 0 142 142" version="1.1" xmlns="http://www.w3.org/2000/svg" xmlns:xlink="http://www.w3.org/1999/xlink" xml:space="preserve" xmlns:serif="http://www.serif.com/" style="fill-rule:evenodd;clip-rule:evenodd;stroke-linejoin:round;stroke-miterlimit:2;">
    <g id="Patron" transform="matrix(1,0,0,1,-82.744661,-2171.751969)">
        <g>
            <g transform="matrix(0.797896,0,0,0.797896,16.722996,438.918945)">
                <path d="M260.353,2233.529L260.353,2287.583C260.353,2321.679 232.671,2349.36 198.576,2349.36L144.521,2349.36C110.426,2349.36 82.745,2321.679 82.745,2287.583L82.745,2233.529C82.745,2199.433 110.426,2171.752 144.521,2171.752L198.576,2171.752C232.671,2171.752 260.353,2199.433 260.353,2233.529Z" style="fill:rgb(250,215,23);"/>
            </g>
            <g transform="matrix(0.073657,0.073657,-0.073657,0.073657,82.998466,2235.794771)">
                <path d="M758.31,-159.15L552.23,-364.46C546.437,-370 267.768,-652.213 268.307,-660.583C269.071,-672.425 267.112,-671.304 278.26,-680.59C287.708,-688.46 286.03,-694.33 294.29,-694.33C302.543,-694.33 588.587,-412.413 594.38,-406.62L800.08,-200.92C805.613,-195.387 808.38,-188.363 808.38,-179.85C808.38,-171.337 805.483,-164.31 799.69,-158.77C794.15,-153.23 787.253,-150.523 779,-150.65C770.747,-150.783 763.85,-153.617 758.31,-159.15ZM194.85,-234.23C176.23,-265.51 162.307,-298.1 153.08,-332C143.847,-365.9 139.23,-400.44 139.23,-435.62C139.23,-485.307 148.45,-533.6 166.89,-580.5C185.323,-627.4 213.513,-669.693 251.46,-707.38C289.413,-745.333 331.94,-773.63 379.04,-792.27C426.14,-810.91 474.28,-820.23 523.46,-820.23C558.893,-820.23 593.497,-815.513 627.27,-806.08C661.037,-796.64 693.357,-782.613 724.23,-764C740.537,-753.74 749.357,-739.1 750.69,-720.08C752.023,-701.053 745.407,-684.257 730.84,-669.69L289.15,-228C274.59,-213.44 257.693,-206.76 238.46,-207.96C219.233,-209.167 204.697,-217.923 194.85,-234.23ZM244.85,-269.23L308.08,-332.46C297.413,-346.973 287.053,-362.077 277,-377.77C266.947,-393.463 257.92,-409.67 249.92,-426.39C241.92,-443.103 235.243,-460.397 229.89,-478.27C224.53,-496.143 220.54,-514.26 217.92,-532.62C202.127,-488.667 196.757,-443.757 201.81,-397.89C206.857,-352.017 221.203,-309.13 244.85,-269.23ZM352.23,-374.61L584.23,-608.62C555.563,-630.62 526.537,-648.197 497.15,-661.35C467.77,-674.503 440.093,-683.387 414.12,-688C388.14,-692.613 364.663,-692.997 343.69,-689.15C322.717,-685.303 306.437,-677.587 294.85,-666C283.257,-654 275.537,-637.513 271.69,-616.54C267.843,-595.567 268.163,-571.99 272.65,-545.81C277.137,-519.63 285.957,-491.887 299.11,-462.58C312.27,-433.267 329.977,-403.943 352.23,-374.61ZM691.62,-714C650.64,-738.413 607.15,-753.053 561.15,-757.92C515.15,-762.793 470.177,-757.383 426.23,-741.69C445.257,-739.33 463.707,-735.343 481.58,-729.73C499.447,-724.117 516.74,-717.41 533.46,-709.61C550.18,-701.817 566.347,-692.897 581.96,-682.85C597.573,-672.797 612.637,-662.103 627.15,-650.77L691.62,-714Z" style="fill:white;fill-rule:nonzero;"/>
            </g>
            <g transform="matrix(0.073657,0.073657,-0.073657,0.073657,82.998466,2235.794771)">
                <path d="M719.482,-196.193C683.585,-232.09 552.23,-364.46 552.23,-364.46C546.437,-370 267.768,-652.213 268.307,-660.583C269.071,-672.425 267.112,-671.304 278.26,-680.59C287.708,-688.46 286.03,-694.33 294.29,-694.33C302.543,-694.33 588.587,-412.413 594.38,-406.62L800.08,-200.92C805.613,-195.387 808.38,-188.363 808.38,-179.85C808.38,-171.337 805.483,-164.31 799.69,-158.77C794.15,-153.23 727.491,-78.18 719.238,-78.307C714.731,-78.38 668.93,-72.724 685.171,-121.912C691.829,-142.076 743.655,-172.02 719.482,-196.193ZM194.85,-234.23C176.23,-265.51 162.307,-298.1 153.08,-332C143.847,-365.9 139.23,-400.44 139.23,-435.62C139.23,-485.307 148.45,-533.6 166.89,-580.5C185.323,-627.4 213.513,-669.693 251.46,-707.38C289.413,-745.333 331.94,-773.63 379.04,-792.27C426.14,-810.91 474.28,-820.23 523.46,-820.23C558.893,-820.23 593.497,-815.513 627.27,-806.08C661.037,-796.64 693.357,-782.613 724.23,-764C740.537,-753.74 749.357,-739.1 750.69,-720.08C752.023,-701.053 745.407,-684.257 730.84,-669.69L289.15,-228C274.59,-213.44 257.693,-206.76 238.46,-207.96C219.233,-209.167 204.697,-217.923 194.85,-234.23ZM244.85,-269.23L308.08,-332.46C297.413,-346.973 287.053,-362.077 277,-377.77C266.947,-393.463 257.92,-409.67 249.92,-426.39C241.92,-443.103 235.243,-460.397 229.89,-478.27C224.53,-496.143 220.54,-514.26 217.92,-532.62C202.127,-488.667 196.757,-443.757 201.81,-397.89C206.857,-352.017 221.203,-309.13 244.85,-269.23ZM352.23,-374.61L584.23,-608.62C555.563,-630.62 526.537,-648.197 497.15,-661.35C467.77,-674.503 440.093,-683.387 414.12,-688C388.14,-692.613 364.663,-692.997 343.69,-689.15C322.717,-685.303 306.437,-677.587 294.85,-666C283.257,-654 275.537,-637.513 271.69,-616.54C267.843,-595.567 268.163,-571.99 272.65,-545.81C277.137,-519.63 285.957,-491.887 299.11,-462.58C312.27,-433.267 329.977,-403.943 352.23,-374.61ZM691.62,-714C650.64,-738.413 607.15,-753.053 561.15,-757.92C515.15,-762.793 470.177,-757.383 426.23,-741.69C445.257,-739.33 463.707,-735.343 481.58,-729.73C499.447,-724.117 516.74,-717.41 533.46,-709.61C550.18,-701.817 566.347,-692.897 581.96,-682.85C597.573,-672.797 612.637,-662.103 627.15,-650.77L691.62,-714Z" style="fill:white;fill-rule:nonzero;"/>
            </g>
        </g>
    </g>
</svg>
