<?xml version="1.0" encoding="UTF-8" standalone="no"?>
<!DOCTYPE svg PUBLIC "-//W3C//DTD SVG 1.1//EN" "http://www.w3.org/Graphics/SVG/1.1/DTD/svg11.dtd">
<svg width="100%" height="100%" viewBox="0 0 142 142" version="1.1" xmlns="http://www.w3.org/2000/svg" xmlns:xlink="http://www.w3.org/1999/xlink" xml:space="preserve" xmlns:serif="http://www.serif.com/" style="fill-rule:evenodd;clip-rule:evenodd;stroke-linejoin:round;stroke-miterlimit:2;">
    <g transform="matrix(0.797896,0,0,0.797896,-66.021665,-1732.833023)">
        <path d="M260.353,2233.529L260.353,2287.583C260.353,2321.679 232.671,2349.36 198.576,2349.36L144.521,2349.36C110.426,2349.36 82.745,2321.679 82.745,2287.583L82.745,2233.529C82.745,2199.433 110.426,2171.752 144.521,2171.752L198.576,2171.752C232.671,2171.752 260.353,2199.433 260.353,2233.529Z"/>
    </g>
    <g transform="matrix(0.094111,0,0,0.094111,25.682983,117.072459)">
        <path d="M260,-319.23C293.127,-319.23 325.357,-315.473 356.69,-307.96C388.023,-300.447 419.127,-288.663 450,-272.61L450,-665.85C421.9,-684.157 391.49,-697.887 358.77,-707.04C326.05,-716.193 293.127,-720.77 260,-720.77C236,-720.77 213.577,-718.887 192.73,-715.12C171.883,-711.347 150.46,-705.18 128.46,-696.62C125.387,-695.593 123.207,-694.117 121.92,-692.19C120.64,-690.27 120,-688.157 120,-685.85L120,-307.54C120,-303.947 121.283,-301.317 123.85,-299.65C126.41,-297.983 129.23,-297.793 132.31,-299.08C151.283,-305.54 171.307,-310.513 192.38,-314C213.46,-317.487 236,-319.23 260,-319.23ZM510,-272.61C540.873,-288.663 571.977,-300.447 603.31,-307.96C634.643,-315.473 666.873,-319.23 700,-319.23C724,-319.23 746.54,-317.487 767.62,-314C788.693,-310.513 808.717,-305.54 827.69,-299.08C830.77,-297.793 833.59,-297.983 836.15,-299.65C838.717,-301.317 840,-303.947 840,-307.54L840,-685.85C840,-688.157 839.36,-690.207 838.08,-692C836.793,-693.793 834.613,-695.333 831.54,-696.62C809.54,-705.18 788.117,-711.347 767.27,-715.12C746.423,-718.887 724,-720.77 700,-720.77C666.873,-720.77 633.95,-716.193 601.23,-707.04C568.51,-697.887 538.1,-684.157 510,-665.85L510,-272.61ZM480,-201.39C472.207,-201.39 464.913,-202.363 458.12,-204.31C451.32,-206.257 444.897,-208.847 438.85,-212.08C411.31,-227.667 382.5,-239.423 352.42,-247.35C322.347,-255.27 291.54,-259.23 260,-259.23C235.593,-259.23 211.62,-256.527 188.08,-251.12C164.54,-245.707 141.847,-237.743 120,-227.23C105.747,-220.67 92.183,-221.71 79.31,-230.35C66.437,-238.99 60,-251.233 60,-267.08L60,-701.38C60,-710 62.22,-718.09 66.66,-725.65C71.093,-733.217 77.49,-738.667 85.85,-742C112.923,-755.18 141.14,-764.937 170.5,-771.27C199.86,-777.603 229.693,-780.77 260,-780.77C298.92,-780.77 336.947,-775.45 374.08,-764.81C411.207,-754.163 446.513,-738.457 480,-717.69C513.487,-738.457 548.793,-754.163 585.92,-764.81C623.053,-775.45 661.08,-780.77 700,-780.77C730.307,-780.77 760.14,-777.603 789.5,-771.27C818.86,-764.937 847.077,-755.18 874.15,-742C882.51,-738.667 888.907,-733.217 893.34,-725.65C897.78,-718.09 900,-710 900,-701.38L900,-267.08C900,-251.233 893.307,-239.117 879.92,-230.73C866.533,-222.35 852.457,-221.44 837.69,-228C816.103,-238.26 793.733,-246.03 770.58,-251.31C747.427,-256.59 723.9,-259.23 700,-259.23C668.46,-259.23 637.653,-255.27 607.58,-247.35C577.5,-239.423 548.69,-227.667 521.15,-212.08C515.103,-208.847 508.68,-206.257 501.88,-204.31C495.087,-202.363 487.793,-201.39 480,-201.39ZM557.69,-605.54C557.69,-610 559.28,-614.563 562.46,-619.23C565.64,-623.897 569.257,-627.103 573.31,-628.85C593.157,-636.797 613.58,-642.82 634.58,-646.92C655.58,-651.027 677.387,-653.08 700,-653.08C713.08,-653.08 725.733,-652.31 737.96,-650.77C750.193,-649.23 762.513,-647.127 774.92,-644.46C779.64,-643.387 783.717,-640.823 787.15,-636.77C790.59,-632.717 792.31,-628 792.31,-622.62C792.31,-613.593 789.477,-606.99 783.81,-602.81C778.143,-598.63 770.797,-597.617 761.77,-599.77C752.177,-601.77 742.213,-603.207 731.88,-604.08C721.547,-604.953 710.92,-605.39 700,-605.39C680.613,-605.39 661.627,-603.53 643.04,-599.81C624.447,-596.09 606.717,-591.05 589.85,-584.69C580.41,-581.05 572.69,-581.257 566.69,-585.31C560.69,-589.357 557.69,-596.1 557.69,-605.54ZM557.69,-387.08C557.69,-391.54 559.28,-396.167 562.46,-400.96C565.64,-405.753 569.257,-409.023 573.31,-410.77C592.643,-418.717 613.067,-424.677 634.58,-428.65C656.093,-432.623 677.9,-434.61 700,-434.61C713.08,-434.61 725.733,-433.843 737.96,-432.31C750.193,-430.77 762.513,-428.667 774.92,-426C779.64,-424.92 783.717,-422.357 787.15,-418.31C790.59,-414.257 792.31,-409.537 792.31,-404.15C792.31,-395.13 789.477,-388.53 783.81,-384.35C778.143,-380.17 770.797,-379.157 761.77,-381.31C752.177,-383.31 742.213,-384.747 731.88,-385.62C721.547,-386.487 710.92,-386.92 700,-386.92C680.873,-386.92 662.077,-385.1 643.61,-381.46C625.15,-377.82 607.483,-372.693 590.61,-366.08C581.177,-362.18 573.333,-362.28 567.08,-366.38C560.82,-370.487 557.69,-377.387 557.69,-387.08ZM557.69,-495.92C557.69,-500.38 559.28,-504.943 562.46,-509.61C565.64,-514.277 569.257,-517.483 573.31,-519.23C593.157,-527.177 613.58,-533.203 634.58,-537.31C655.58,-541.41 677.387,-543.46 700,-543.46C713.08,-543.46 725.733,-542.69 737.96,-541.15C750.193,-539.617 762.513,-537.517 774.92,-534.85C779.64,-533.77 783.717,-531.203 787.15,-527.15C790.59,-523.103 792.31,-518.387 792.31,-513C792.31,-503.973 789.477,-497.37 783.81,-493.19C778.143,-489.01 770.797,-487.997 761.77,-490.15C752.177,-492.15 742.213,-493.587 731.88,-494.46C721.547,-495.333 710.92,-495.77 700,-495.77C680.613,-495.77 661.627,-493.91 643.04,-490.19C624.447,-486.477 606.717,-481.44 589.85,-475.08C580.41,-471.44 572.69,-471.643 566.69,-475.69C560.69,-479.743 557.69,-486.487 557.69,-495.92Z" style="fill:white;fill-rule:nonzero;"/>
    </g>
    <g transform="matrix(0.046138,0,0,0.053738,40.357609,54.016881)">
        <path d="M406.129,117.954L290.349,117.954L290.349,12.756C290.349,4.996 285.352,0 277.592,0L234.756,0C226.996,0 220.354,4.996 220.354,12.756L220.354,117.955L106.218,117.955C98.458,117.955 92.03,124.166 92.03,131.927L92.03,174.763C92.03,182.523 98.458,189.247 106.218,189.247L220.354,189.247L220.354,496.653C220.354,504.413 226.996,512.001 234.757,512.001L277.593,512.001C285.353,512.001 290.35,504.413 290.35,496.653L290.35,189.246L406.131,189.246C413.891,189.246 419.971,182.523 419.971,174.762L419.971,131.926C419.969,124.166 413.891,117.954 406.129,117.954Z" style="fill:white;fill-rule:nonzero;"/>
        <rect x="220.354" y="190.542" width="69.995" height="24.628" style="fill:white;"/>
    </g>
</svg>
