<?xml version="1.0" encoding="UTF-8" standalone="no"?>
<!DOCTYPE svg PUBLIC "-//W3C//DTD SVG 1.1//EN" "http://www.w3.org/Graphics/SVG/1.1/DTD/svg11.dtd">
<svg width="100%" height="100%" viewBox="0 0 1100 313" version="1.1" xmlns="http://www.w3.org/2000/svg" xmlns:xlink="http://www.w3.org/1999/xlink" xml:space="preserve" xmlns:serif="http://www.serif.com/" style="fill-rule:evenodd;clip-rule:evenodd;stroke-linejoin:round;stroke-miterlimit:2;">
    <g transform="matrix(1,0,0,1,-82.744661,-2694.568519)">
        <g transform="matrix(0.421632,0,0,0.399943,47.856895,1826.345434)">
            <path d="M260.353,2233.529L260.353,2287.583C260.353,2321.679 234.095,2349.36 201.754,2349.36L141.344,2349.36C109.002,2349.36 82.745,2321.679 82.745,2287.583L82.745,2233.529C82.745,2199.433 109.002,2171.752 141.344,2171.752L201.754,2171.752C234.095,2171.752 260.353,2199.433 260.353,2233.529Z" style="fill:rgb(249,215,15);"/>
        </g>
        <g transform="matrix(1.445261,0,0,1.445261,62.760025,1034.263644)">
            <g transform="matrix(41.666667,0,0,41.666667,122.800216,1188.400262)">
            </g>
            <text x="82.745px" y="1188.4px" style="font-family:'Poppins-Bold', 'Poppins';font-weight:700;font-size:41.667px;fill:rgb(27,20,59);">+</text>
        </g>
        <g transform="matrix(0.421632,0,0,0.399943,212.966071,1825.990694)">
            <path d="M260.353,2233.529L260.353,2287.583C260.353,2321.679 234.095,2349.36 201.754,2349.36L141.344,2349.36C109.002,2349.36 82.745,2321.679 82.745,2287.583L82.745,2233.529C82.745,2199.433 109.002,2171.752 141.344,2171.752L201.754,2171.752C234.095,2171.752 260.353,2199.433 260.353,2233.529Z" style="fill:rgb(25,192,220);"/>
        </g>
        <g transform="matrix(1.445261,0,0,1.445261,231.202033,1034.263644)">
            <g transform="matrix(41.666667,0,0,41.666667,125.63355,1188.400262)">
            </g>
            <text x="82.745px" y="1188.4px" style="font-family:'Poppins-Bold', 'Poppins';font-weight:700;font-size:41.667px;fill:rgb(27,20,59);">=</text>
        </g>
        <g transform="matrix(0.421632,0,0,0.399943,384.216833,1826.487353)">
            <path d="M260.353,2233.529L260.353,2287.583C260.353,2321.679 234.095,2349.36 201.754,2349.36L141.344,2349.36C109.002,2349.36 82.745,2321.679 82.745,2287.583L82.745,2233.529C82.745,2199.433 109.002,2171.752 141.344,2171.752L201.754,2171.752C234.095,2171.752 260.353,2199.433 260.353,2233.529Z" style="fill:rgb(37,181,111);"/>
        </g>
    </g>
    <g transform="matrix(1,0,0,1,-82.231624,-2570.494473)">
        <g transform="matrix(0.421632,0,0,0.399943,47.856895,1826.345434)">
            <path d="M260.353,2233.529L260.353,2287.583C260.353,2321.679 234.095,2349.36 201.754,2349.36L141.344,2349.36C109.002,2349.36 82.745,2321.679 82.745,2287.583L82.745,2233.529C82.745,2199.433 109.002,2171.752 141.344,2171.752L201.754,2171.752C234.095,2171.752 260.353,2199.433 260.353,2233.529Z" style="fill:rgb(249,215,15);"/>
        </g>
        <g transform="matrix(1.445261,0,0,1.445261,66.449365,1033.944386)">
            <g transform="matrix(41.666667,0,0,41.666667,122.800216,1188.400262)">
            </g>
            <text x="82.745px" y="1188.4px" style="font-family:'Poppins-Bold', 'Poppins';font-weight:700;font-size:41.667px;fill:rgb(27,20,59);">+</text>
        </g>
        <g transform="matrix(0.421632,0,0,0.399943,214.59792,1825.494057)">
            <path d="M260.353,2233.529L260.353,2287.583C260.353,2321.679 234.095,2349.36 201.754,2349.36L141.344,2349.36C109.002,2349.36 82.745,2321.679 82.745,2287.583L82.745,2233.529C82.745,2199.433 109.002,2171.752 141.344,2171.752L201.754,2171.752C234.095,2171.752 260.353,2199.433 260.353,2233.529Z" style="fill:rgb(239,55,70);"/>
        </g>
        <g transform="matrix(1.445261,0,0,1.445261,231.131056,1033.944386)">
            <g transform="matrix(41.666667,0,0,41.666667,125.63355,1188.400262)">
            </g>
            <text x="82.745px" y="1188.4px" style="font-family:'Poppins-Bold', 'Poppins';font-weight:700;font-size:41.667px;fill:rgb(27,20,59);">=</text>
        </g>
        <g transform="matrix(0.421632,0,0,0.399943,383.703796,1825.990694)">
            <path d="M260.353,2233.529L260.353,2287.583C260.353,2321.679 234.095,2349.36 201.754,2349.36L141.344,2349.36C109.002,2349.36 82.745,2321.679 82.745,2287.583L82.745,2233.529C82.745,2199.433 109.002,2171.752 141.344,2171.752L201.754,2171.752C234.095,2171.752 260.353,2199.433 260.353,2233.529Z" style="fill:rgb(241,135,32);"/>
        </g>
    </g>
    <g transform="matrix(1,0,0,1,-82.744661,-2453.142988)">
        <g transform="matrix(0.421632,0,0,0.399943,47.856895,1826.345434)">
            <path d="M260.353,2233.529L260.353,2287.583C260.353,2321.679 234.095,2349.36 201.754,2349.36L141.344,2349.36C109.002,2349.36 82.745,2321.679 82.745,2287.583L82.745,2233.529C82.745,2199.433 109.002,2171.752 141.344,2171.752L201.754,2171.752C234.095,2171.752 260.353,2199.433 260.353,2233.529Z" style="fill:rgb(0,194,222);"/>
        </g>
        <g transform="matrix(1.445261,0,0,1.445261,62.760025,1034.795763)">
            <g transform="matrix(41.666667,0,0,41.666667,122.800216,1188.400262)">
            </g>
            <text x="82.745px" y="1188.4px" style="font-family:'Poppins-Bold', 'Poppins';font-weight:700;font-size:41.667px;fill:rgb(27,20,59);">+</text>
        </g>
        <g transform="matrix(0.421632,0,0,0.399943,212.966071,1826.345434)">
            <path d="M260.353,2233.529L260.353,2287.583C260.353,2321.679 234.095,2349.36 201.754,2349.36L141.344,2349.36C109.002,2349.36 82.745,2321.679 82.745,2287.583L82.745,2233.529C82.745,2199.433 109.002,2171.752 141.344,2171.752L201.754,2171.752C234.095,2171.752 260.353,2199.433 260.353,2233.529Z" style="fill:rgb(239,55,70);"/>
        </g>
        <g transform="matrix(1.445261,0,0,1.445261,231.911514,1034.795763)">
            <g transform="matrix(41.666667,0,0,41.666667,125.63355,1188.400262)">
            </g>
            <text x="82.745px" y="1188.4px" style="font-family:'Poppins-Bold', 'Poppins';font-weight:700;font-size:41.667px;fill:rgb(27,20,59);">=</text>
        </g>
        <g transform="matrix(0.421632,0,0,0.399943,384.216833,1826.345434)">
            <path d="M260.353,2233.529L260.353,2287.583C260.353,2321.679 234.095,2349.36 201.754,2349.36L141.344,2349.36C109.002,2349.36 82.745,2321.679 82.745,2287.583L82.745,2233.529C82.745,2199.433 109.002,2171.752 141.344,2171.752L201.754,2171.752C234.095,2171.752 260.353,2199.433 260.353,2233.529Z" style="fill:rgb(95,40,121);"/>
        </g>
    </g>
    <g transform="matrix(1,0,0,1,438.587395,-2570.494473)">
        <g transform="matrix(0.421632,0,0,0.399943,47.856895,1826.345434)">
            <path d="M260.353,2233.529L260.353,2287.583C260.353,2321.679 234.095,2349.36 201.754,2349.36L141.344,2349.36C109.002,2349.36 82.745,2321.679 82.745,2287.583L82.745,2233.529C82.745,2199.433 109.002,2171.752 141.344,2171.752L201.754,2171.752C234.095,2171.752 260.353,2199.433 260.353,2233.529Z" style="fill:rgb(249,215,15);"/>
        </g>
        <g transform="matrix(1.445261,0,0,1.445261,66.449365,1032.472473)">
            <g transform="matrix(41.666667,0,0,41.666667,122.800216,1188.400262)">
            </g>
            <text x="82.745px" y="1188.4px" style="font-family:'Poppins-Bold', 'Poppins';font-weight:700;font-size:41.667px;fill:rgb(27,20,59);">+</text>
        </g>
        <g transform="matrix(0.421632,0,0,0.399943,214.8817,1824.022144)">
            <path d="M260.353,2233.529L260.353,2287.583C260.353,2321.679 234.095,2349.36 201.754,2349.36L141.344,2349.36C109.002,2349.36 82.745,2321.679 82.745,2287.583L82.745,2233.529C82.745,2199.433 109.002,2171.752 141.344,2171.752L201.754,2171.752C234.095,2171.752 260.353,2199.433 260.353,2233.529Z" style="fill:rgb(25,192,220);"/>
        </g>
        <g transform="matrix(1.445261,0,0,1.445261,235.017056,1029.964447)">
            <g transform="matrix(41.666667,0,0,41.666667,122.800216,1188.400262)">
            </g>
            <text x="82.745px" y="1188.4px" style="font-family:'Poppins-Bold', 'Poppins';font-weight:700;font-size:41.667px;fill:rgb(27,20,59);">+</text>
        </g>
        <g transform="matrix(0.421632,0,0,0.399943,383.703796,1821.514118)">
            <path d="M260.353,2233.529L260.353,2287.583C260.353,2321.679 234.095,2349.36 201.754,2349.36L141.344,2349.36C109.002,2349.36 82.745,2321.679 82.745,2287.583L82.745,2233.529C82.745,2199.433 109.002,2171.752 141.344,2171.752L201.754,2171.752C234.095,2171.752 260.353,2199.433 260.353,2233.529Z" style="fill:rgb(239,55,70);"/>
        </g>
    </g>
    <g transform="matrix(1.445261,0,0,1.445261,837.870243,-1541.654134)">
        <g transform="matrix(41.666667,0,0,41.666667,125.63355,1188.400262)">
        </g>
        <text x="82.745px" y="1188.4px" style="font-family:'Poppins-Bold', 'Poppins';font-weight:700;font-size:41.667px;fill:rgb(27,20,59);">=</text>
    </g>
    <g transform="matrix(0.421632,0,0,0.399943,989.851399,-748.980355)">
        <path d="M260.353,2233.529L260.353,2287.583C260.353,2321.679 234.095,2349.36 201.754,2349.36L141.344,2349.36C109.002,2349.36 82.745,2321.679 82.745,2287.583L82.745,2233.529C82.745,2199.433 109.002,2171.752 141.344,2171.752L201.754,2171.752C234.095,2171.752 260.353,2199.433 260.353,2233.529Z" style="fill:rgb(0,65,141);"/>
    </g>
</svg>
