<?xml version="1.0" encoding="UTF-8" standalone="no"?>
<!DOCTYPE svg PUBLIC "-//W3C//DTD SVG 1.1//EN" "http://www.w3.org/Graphics/SVG/1.1/DTD/svg11.dtd">
<svg width="100%" height="100%" viewBox="0 0 142 142" version="1.1" xmlns="http://www.w3.org/2000/svg" xmlns:xlink="http://www.w3.org/1999/xlink" xml:space="preserve" xmlns:serif="http://www.serif.com/" style="fill-rule:evenodd;clip-rule:evenodd;stroke-linejoin:round;stroke-miterlimit:2;">
    <g transform="matrix(0.797896,0,0,0.797896,-66.021665,-1732.833023)">
        <path d="M260.353,2233.529L260.353,2287.583C260.353,2321.679 232.671,2349.36 198.576,2349.36L144.521,2349.36C110.426,2349.36 82.745,2321.679 82.745,2287.583L82.745,2233.529C82.745,2199.433 110.426,2171.752 144.521,2171.752L198.576,2171.752C232.671,2171.752 260.353,2199.433 260.353,2233.529Z" style="fill:rgb(166,93,38);"/>
    </g>
    <g transform="matrix(0.126376,0,0,0.126376,10.195816,132.494306)">
        <path d="M354,-287L480,-363L606,-286L573,-430L684,-526L538,-539L480,-675L422,-540L276,-527L387,-430L354,-287ZM480,-292.46L324.39,-198.62C318.59,-195.233 312.78,-193.81 306.96,-194.35C301.14,-194.89 295.873,-196.85 291.16,-200.23C286.44,-203.617 282.797,-208.04 280.23,-213.5C277.67,-218.96 277.26,-225 279,-231.62L320.31,-408.31L182.93,-527.23C177.797,-531.69 174.527,-536.857 173.12,-542.73C171.707,-548.603 172.077,-554.31 174.23,-559.85C176.383,-565.383 179.487,-569.907 183.54,-573.42C187.593,-576.933 193.133,-579.23 200.16,-580.31L381.46,-596.15L451.85,-763C454.41,-769.207 458.293,-773.797 463.5,-776.77C468.707,-779.743 474.207,-781.23 480,-781.23C485.793,-781.23 491.293,-779.743 496.5,-776.77C501.707,-773.797 505.59,-769.207 508.15,-763L578.54,-596.15L759.84,-580.31C766.867,-579.23 772.407,-576.933 776.46,-573.42C780.513,-569.907 783.617,-565.383 785.77,-559.85C787.923,-554.31 788.293,-548.603 786.88,-542.73C785.473,-536.857 782.203,-531.69 777.07,-527.23L639.69,-408.31L681,-231.62C682.74,-225 682.33,-218.96 679.77,-213.5C677.203,-208.04 673.56,-203.617 668.84,-200.23C664.127,-196.85 658.86,-194.89 653.04,-194.35C647.22,-193.81 641.41,-195.233 635.61,-198.62L480,-292.46Z" style="fill:white;fill-rule:nonzero;"/>
    </g>
</svg>
