<?xml version="1.0" encoding="UTF-8" standalone="no"?>
<!DOCTYPE svg PUBLIC "-//W3C//DTD SVG 1.1//EN" "http://www.w3.org/Graphics/SVG/1.1/DTD/svg11.dtd">
<svg width="100%" height="100%" viewBox="0 0 154 154" version="1.1" xmlns="http://www.w3.org/2000/svg" xmlns:xlink="http://www.w3.org/1999/xlink" xml:space="preserve" xmlns:serif="http://www.serif.com/" style="fill-rule:evenodd;clip-rule:evenodd;stroke-linecap:round;stroke-linejoin:round;stroke-miterlimit:1.5;">
    <g transform="matrix(0.797896,0,0,0.797896,-60.021665,-1726.833023)">
        <path d="M260.353,2233.529L260.353,2287.583C260.353,2321.679 232.671,2349.36 198.576,2349.36L144.521,2349.36C110.426,2349.36 82.745,2321.679 82.745,2287.583L82.745,2233.529C82.745,2199.433 110.426,2171.752 144.521,2171.752L198.576,2171.752C232.671,2171.752 260.353,2199.433 260.353,2233.529Z" style="fill:white;stroke:rgb(195,193,192);stroke-width:7.15px;"/>
    </g>
    <g transform="matrix(0,-0.104167,0.104167,0,126.856345,112.661035)">
        <path d="M480.08,-105.39C471.053,-105.39 462.16,-107.197 453.4,-110.81C444.64,-114.423 436.637,-119.847 429.39,-127.08L127.08,-429.39C119.847,-436.603 114.423,-444.573 110.81,-453.3C107.197,-462.027 105.39,-470.9 105.39,-479.92C105.39,-488.947 107.197,-497.84 110.81,-506.6C114.423,-515.36 119.847,-523.363 127.08,-530.61L429.39,-832.92C436.603,-840.153 444.573,-845.577 453.3,-849.19C462.027,-852.803 470.9,-854.61 479.92,-854.61C488.947,-854.61 497.84,-852.803 506.6,-849.19C515.36,-845.577 523.363,-840.153 530.61,-832.92L832.92,-530.61C840.153,-523.397 845.577,-515.427 849.19,-506.7C852.803,-497.973 854.61,-489.1 854.61,-480.08C854.61,-471.053 852.803,-462.16 849.19,-453.4C845.577,-444.64 840.153,-436.637 832.92,-429.39L530.61,-127.08C523.397,-119.847 515.427,-114.423 506.7,-110.81C497.973,-107.197 489.1,-105.39 480.08,-105.39ZM168.46,-471.54L471.54,-168.46C473.847,-166.153 476.667,-165 480,-165C483.333,-165 486.153,-166.153 488.46,-168.46L791.54,-471.54C793.847,-473.847 795,-476.667 795,-480C795,-483.333 793.847,-486.153 791.54,-488.46L488.46,-791.54C486.153,-793.847 483.333,-795 480,-795C476.667,-795 473.847,-793.847 471.54,-791.54L168.46,-488.46C166.153,-486.153 165,-483.333 165,-480C165,-476.667 166.153,-473.847 168.46,-471.54ZM550.62,-450L458.31,-357.08C452.77,-351.54 449.937,-344.68 449.81,-336.5C449.683,-328.32 452.75,-321.1 459.01,-314.84C464.75,-309.1 471.747,-306.23 480,-306.23C488.253,-306.23 495.28,-309.127 501.08,-314.92L640.85,-454.69C648.077,-461.923 651.69,-470.36 651.69,-480C651.69,-489.64 648.077,-498.077 640.85,-505.31L501.08,-645.08C495.54,-650.613 488.68,-653.547 480.5,-653.88C472.32,-654.213 465.1,-651.25 458.84,-644.99C453.1,-639.25 450.127,-632.357 449.92,-624.31C449.72,-616.257 452.517,-609.127 458.31,-602.92L550.62,-510L323.85,-510C315.35,-510 308.223,-507.123 302.47,-501.37C296.723,-495.617 293.85,-488.49 293.85,-479.99C293.85,-471.483 296.723,-464.36 302.47,-458.62C308.223,-452.873 315.35,-450 323.85,-450L550.62,-450Z" style="fill:rgb(64,64,64);fill-rule:nonzero;"/>
    </g>
    <g transform="matrix(0,-0.0908,0.104167,0,126.856345,156.755121)">
        <path d="M550.62,-450L640.85,-454.69C648.077,-461.923 651.69,-470.36 651.69,-480C651.69,-489.64 648.077,-498.077 640.85,-505.31L550.62,-510L323.85,-510C315.35,-510 308.223,-507.123 302.47,-501.37C296.723,-495.617 293.85,-488.49 293.85,-479.99C293.85,-471.483 296.723,-464.36 302.47,-458.62C308.223,-452.873 315.35,-450 323.85,-450L550.62,-450Z" style="fill:rgb(64,64,64);fill-rule:nonzero;"/>
    </g>
</svg>
