<?xml version="1.0" encoding="UTF-8" standalone="no"?>
<!DOCTYPE svg PUBLIC "-//W3C//DTD SVG 1.1//EN" "http://www.w3.org/Graphics/SVG/1.1/DTD/svg11.dtd">
<svg width="100%" height="100%" viewBox="0 0 142 142" version="1.1" xmlns="http://www.w3.org/2000/svg" xmlns:xlink="http://www.w3.org/1999/xlink" xml:space="preserve" xmlns:serif="http://www.serif.com/" style="fill-rule:evenodd;clip-rule:evenodd;stroke-linejoin:round;stroke-miterlimit:2;">
    <g transform="matrix(0.797896,0,0,0.797896,-66.021665,-1732.833023)">
        <path d="M260.353,2233.529L260.353,2287.583C260.353,2321.679 232.671,2349.36 198.576,2349.36L144.521,2349.36C110.426,2349.36 82.745,2321.679 82.745,2287.583L82.745,2233.529C82.745,2199.433 110.426,2171.752 144.521,2171.752L198.576,2171.752C232.671,2171.752 260.353,2199.433 260.353,2233.529Z" style="fill:rgb(0,194,222);"/>
    </g>
    <g transform="matrix(0.124001,0,0,0.124001,11.335721,130.277148)">
        <path d="M480,-105.16C475.847,-105.16 471.77,-105.493 467.77,-106.16C463.77,-106.827 459.897,-107.827 456.15,-109.16C371.797,-139.16 304.683,-192.35 254.81,-268.73C204.937,-345.117 180,-427.54 180,-516L180,-696.15C180,-711.283 184.387,-724.937 193.16,-737.11C201.927,-749.29 213.207,-758.123 227,-763.61L454.69,-848.61C463.257,-851.69 471.693,-853.23 480,-853.23C488.307,-853.23 496.743,-851.69 505.31,-848.61L733,-763.61C746.793,-758.123 758.073,-749.29 766.84,-737.11C775.613,-724.937 780,-711.283 780,-696.15L780,-516C780,-427.54 755.063,-345.117 705.19,-268.73C655.317,-192.35 588.203,-139.16 503.85,-109.16C500.103,-107.827 496.23,-106.827 492.23,-106.16C488.23,-105.493 484.153,-105.16 480,-105.16Z" style="fill:white;fill-rule:nonzero;"/>
    </g>
    <g transform="matrix(0.066784,0,0,0.066784,38.800014,102.912676)">
        <path d="M450,-450L450,-320C450,-311.5 452.877,-304.377 458.63,-298.63C464.383,-292.877 471.51,-290 480.01,-290C488.517,-290 495.64,-292.877 501.38,-298.63C507.127,-304.377 510,-311.5 510,-320L510,-450L640,-450C648.5,-450 655.623,-452.877 661.37,-458.63C667.123,-464.383 670,-471.51 670,-480.01C670,-488.517 667.123,-495.64 661.37,-501.38C655.623,-507.127 648.5,-510 640,-510L510,-510L510,-640C510,-648.5 507.123,-655.623 501.37,-661.37C495.617,-667.123 488.49,-670 479.99,-670C471.483,-670 464.36,-667.123 458.62,-661.37C452.873,-655.623 450,-648.5 450,-640L450,-510L320,-510C311.5,-510 304.377,-507.123 298.63,-501.37C292.877,-495.617 290,-488.49 290,-479.99C290,-471.483 292.877,-464.36 298.63,-458.62C304.377,-452.873 311.5,-450 320,-450L450,-450ZM480.07,-100C427.51,-100 378.107,-109.973 331.86,-129.92C285.613,-149.867 245.387,-176.937 211.18,-211.13C176.973,-245.323 149.89,-285.533 129.93,-331.76C109.977,-377.987 100,-427.377 100,-479.93C100,-532.49 109.973,-581.893 129.92,-628.14C149.867,-674.387 176.937,-714.613 211.13,-748.82C245.323,-783.027 285.533,-810.11 331.76,-830.07C377.987,-850.023 427.377,-860 479.93,-860C532.49,-860 581.893,-850.027 628.14,-830.08C674.387,-810.133 714.613,-783.063 748.82,-748.87C783.027,-714.677 810.11,-674.467 830.07,-628.24C850.023,-582.013 860,-532.623 860,-480.07C860,-427.51 850.027,-378.107 830.08,-331.86C810.133,-285.613 783.063,-245.387 748.87,-211.18C714.677,-176.973 674.467,-149.89 628.24,-129.93C582.013,-109.977 532.623,-100 480.07,-100ZM480,-160C569.333,-160 645,-191 707,-253C769,-315 800,-390.667 800,-480C800,-569.333 769,-645 707,-707C645,-769 569.333,-800 480,-800C390.667,-800 315,-769 253,-707C191,-645 160,-569.333 160,-480C160,-390.667 191,-315 253,-253C315,-191 390.667,-160 480,-160Z" style="fill:rgb(25,192,220);fill-rule:nonzero;"/>
    </g>
</svg>
