<?xml version="1.0" encoding="UTF-8" standalone="no"?>
<!DOCTYPE svg PUBLIC "-//W3C//DTD SVG 1.1//EN" "http://www.w3.org/Graphics/SVG/1.1/DTD/svg11.dtd">
<svg width="100%" height="100%" viewBox="0 0 142 142" version="1.1" xmlns="http://www.w3.org/2000/svg" xmlns:xlink="http://www.w3.org/1999/xlink" xml:space="preserve" xmlns:serif="http://www.serif.com/" style="fill-rule:evenodd;clip-rule:evenodd;stroke-linejoin:round;stroke-miterlimit:2;">
    <g transform="matrix(0.797896,0,0,0.797896,-66.021665,-1732.833023)">
        <path d="M260.353,2233.529L260.353,2287.583C260.353,2321.679 232.671,2349.36 198.576,2349.36L144.521,2349.36C110.426,2349.36 82.745,2321.679 82.745,2287.583L82.745,2233.529C82.745,2199.433 110.426,2171.752 144.521,2171.752L198.576,2171.752C232.671,2171.752 260.353,2199.433 260.353,2233.529Z" style="fill:rgb(244,53,69);"/>
    </g>
    <g transform="matrix(0.09643,0,0,0.09643,26.1764,115.905492)">
        <path d="M554.92,-135.92C556.207,-135.407 557.36,-135.15 558.38,-135.15C559.407,-135.15 560.563,-135.407 561.85,-135.92L797.15,-208.77C795.103,-217.843 790.873,-224.803 784.46,-229.65C778.047,-234.497 770.79,-236.92 762.69,-236.92L566.8,-236.92C549.347,-236.92 534.517,-237.587 522.31,-238.92C510.103,-240.253 497.563,-243.177 484.69,-247.69L421.92,-268.23C413.853,-270.797 408.057,-275.923 404.53,-283.61C400.997,-291.303 400.513,-299.137 403.08,-307.11C405.64,-315.09 410.6,-320.937 417.96,-324.65C425.32,-328.37 433.05,-328.947 441.15,-326.38L493.15,-308.15C505.257,-304.303 518.797,-301.573 533.77,-299.96C548.743,-298.347 568.15,-297.333 591.99,-296.92L602.69,-296.92C602.69,-306.82 600.46,-315.36 596,-322.54C591.54,-329.72 585.667,-334.567 578.38,-337.08L346.31,-422.31C345.537,-422.563 344.83,-422.753 344.19,-422.88C343.55,-423.013 342.847,-423.08 342.08,-423.08L268.08,-423.08L268.08,-216.92L554.92,-135.92ZM539.31,-77.15L268.08,-154.92C263.513,-138.36 254.23,-125.067 240.23,-115.04C226.23,-105.013 211.41,-100 195.77,-100L140.39,-100C120.503,-100 103.48,-107.08 89.32,-121.24C75.16,-135.4 68.08,-152.423 68.08,-172.31L68.08,-410.77C68.08,-430.65 75.16,-447.67 89.32,-461.83C103.48,-475.99 120.503,-483.07 140.39,-483.07L341.63,-483.07C345.823,-483.07 350.073,-482.61 354.38,-481.69C358.693,-480.763 362.693,-479.687 366.38,-478.46L599.46,-392.61C617.613,-385.897 632.69,-374.013 644.69,-356.96C656.69,-339.907 662.69,-319.893 662.69,-296.92L762.69,-296.92C791.41,-296.92 814.807,-287.65 832.88,-269.11C850.96,-250.577 860,-226.513 860,-196.92C860,-185.587 857,-176.46 851,-169.54C845,-162.613 835.923,-157.127 823.77,-153.08L581.08,-77.77C574.513,-75.617 567.613,-74.477 560.38,-74.35C553.153,-74.217 546.13,-75.15 539.31,-77.15ZM128.08,-172.31C128.08,-168.717 129.233,-165.767 131.54,-163.46C133.847,-161.153 136.797,-160 140.39,-160L195.77,-160C199.357,-160 202.307,-160.96 204.62,-162.88C206.927,-164.807 208.08,-167.95 208.08,-172.31L208.08,-423.08L140.39,-423.08C136.797,-423.08 133.847,-421.923 131.54,-419.61C129.233,-417.303 128.08,-414.357 128.08,-410.77L128.08,-172.31ZM633.84,-480.85C624.867,-480.85 616.047,-482.49 607.38,-485.77C598.713,-489.05 590.793,-493.973 583.62,-500.54L475.54,-605.46C456.413,-623.92 440.323,-644.47 427.27,-667.11C414.217,-689.75 407.69,-714.407 407.69,-741.08C407.69,-774.113 419.253,-802.19 442.38,-825.31C465.5,-848.437 493.577,-860 526.61,-860C548.203,-860 568.14,-854.793 586.42,-844.38C604.707,-833.973 620.517,-820.717 633.85,-804.61C647.183,-820.717 662.99,-833.973 681.27,-844.38C699.55,-854.793 719.487,-860 741.08,-860C774.113,-860 802.19,-848.437 825.31,-825.31C848.437,-802.19 860,-774.113 860,-741.08C860,-714.407 853.577,-689.75 840.73,-667.11C827.883,-644.47 811.897,-623.92 792.77,-605.46L684.08,-500.54C676.9,-493.973 668.973,-489.05 660.3,-485.77C651.633,-482.49 642.813,-480.85 633.84,-480.85ZM642.31,-543.92L748.23,-646.69C761.663,-659.87 773.65,-674.203 784.19,-689.69C794.73,-705.177 800,-722.307 800,-741.08C800,-757.54 794.293,-771.473 782.88,-782.88C771.473,-794.293 757.54,-800 741.08,-800C728.413,-800 716.823,-796.693 706.31,-790.08C695.797,-783.46 686.513,-775.073 678.46,-764.92L660.61,-743.38C653.723,-735.073 644.823,-730.92 633.91,-730.92C622.997,-730.92 614.053,-735.073 607.08,-743.38L589.23,-764.92C581.177,-775.073 571.893,-783.46 561.38,-790.08C550.873,-796.693 539.283,-800 526.61,-800C510.15,-800 496.217,-794.293 484.81,-782.88C473.397,-771.473 467.69,-757.54 467.69,-741.08C467.69,-722.307 472.96,-705.177 483.5,-689.69C494.04,-674.203 506.027,-659.87 519.46,-646.69L625.38,-543.92C627.693,-541.613 630.517,-540.46 633.85,-540.46C637.183,-540.46 640.003,-541.613 642.31,-543.92Z" style="fill:white;fill-rule:nonzero;"/>
    </g>
</svg>
