<?xml version="1.0" encoding="UTF-8" standalone="no"?>
<!DOCTYPE svg PUBLIC "-//W3C//DTD SVG 1.1//EN" "http://www.w3.org/Graphics/SVG/1.1/DTD/svg11.dtd">
<svg width="100%" height="100%" viewBox="0 0 142 142" version="1.1" xmlns="http://www.w3.org/2000/svg" xmlns:xlink="http://www.w3.org/1999/xlink" xml:space="preserve" xmlns:serif="http://www.serif.com/" style="fill-rule:evenodd;clip-rule:evenodd;stroke-linejoin:round;stroke-miterlimit:2;">
    <g transform="matrix(0.797896,0,0,0.797896,-66.021665,-1732.833023)">
        <path d="M260.353,2233.529L260.353,2287.583C260.353,2321.679 232.671,2349.36 198.576,2349.36L144.521,2349.36C110.426,2349.36 82.745,2321.679 82.745,2287.583L82.745,2233.529C82.745,2199.433 110.426,2171.752 144.521,2171.752L198.576,2171.752C232.671,2171.752 260.353,2199.433 260.353,2233.529Z" style="fill:rgb(167,91,1);"/>
    </g>
    <g transform="matrix(1,0,0,1,15.822268,50.082769)">
        <path d="M38.503,49.052C47.312,47.822 53.499,44.923 58.067,35.305C61.209,28.69 56.17,16.609 62.541,19.431C65.628,20.798 67.219,38.29 55.208,48.158C43.793,57.536 20.139,56.284 13.445,35.521C12.449,32.431 11.776,20.352 16.846,13.777C19.445,10.405 19.213,10.213 22.655,7.745C39.401,-4.265 56.267,6.902 56.852,10.432C57.088,11.854 56.017,16.115 51.778,12.198C41.627,2.818 15.692,7.945 17.916,31.452C18.29,35.402 23.607,43.436 26.742,45.069C33.681,48.684 36.594,48.783 38.503,49.052Z" style="fill:white;fill-opacity:0.96;"/>
    </g>
    <g transform="matrix(1,0,0,1,15.822268,50.082769)">
        <path d="M38.5,12.067C39.46,12.084 48.847,12.249 49.212,17.475C49.469,21.165 44.683,19.072 44.309,18.908C41.687,17.761 38.692,15.94 32.737,18.937C25.03,22.815 26.335,37.263 37.442,38.969C40.849,39.492 49.781,36.832 49.452,26.504C49.347,23.189 55.014,21.204 54.854,27.503C54.384,46.005 30.805,48.067 24.783,36.35C16.748,20.716 30.667,12.282 35.475,12.12C36.483,12.086 37.492,12.101 38.5,12.067Z" style="fill:white;fill-opacity:0.95;"/>
    </g>
    <g transform="matrix(1,0,0,1,15.822268,50.082769)">
        <path d="M33.085,28.51C33.486,18.96 47.616,20.317 43.527,31.515C43.18,32.466 34.622,38.013 33.085,28.51Z" style="fill:white;fill-opacity:0.98;"/>
    </g>
    <g transform="matrix(1,0,0,1,50,27)">
        <path d="M33.41,37.928C29.312,37.478 29.378,38.234 24.307,41.17C15.28,46.395 6.051,51.96 5.394,52.273C3.349,53.246 2.587,51.31 2.651,50.513C2.771,49.004 6.824,47.386 12.646,43.747C14.477,42.602 26.923,35.53 28.259,34.255C30.278,32.329 32.217,18.791 34.455,15.464C35.411,14.043 44.404,9.315 48.631,6.727C56.271,2.052 56.737,2.277 57.437,2.615C58.911,3.328 58.494,4.941 55.228,16.423C54.345,19.525 53.769,21.135 55.348,21.796C55.962,22.052 55.96,22.027 63.407,23.871C70.698,25.676 72.888,26.141 71.613,28.572C71.127,29.498 65.742,32.401 64.774,32.964C61.65,34.782 61.702,34.841 58.589,36.65C54.923,38.78 51.442,41.022 50.433,41.302C49.096,41.673 48.647,41.797 33.41,37.928ZM56.404,25.973C62.048,27.402 63.979,27.626 64.154,27.865C64.282,28.039 64.12,28.295 64.119,28.511C64.118,28.737 64.262,28.995 64.147,29.191C64.052,29.354 61.769,30.49 61.558,30.595C58.876,31.93 58.111,31.249 50.516,29.441C50.452,29.425 47.826,29.002 47.478,28.515C47.281,28.24 46.607,27.296 50.562,25.631C52.036,25.01 52.105,25.178 56.404,25.973ZM45.605,37.037C38.281,35.154 38.22,35.478 37.607,35.244C37.455,35.185 35.853,34.05 37.335,33.341C41.558,31.322 41.636,31.195 43.474,31.611C45.593,32.091 49.28,33.03 49.596,33.103C53.159,33.924 53.567,33.594 53.652,34.441C53.777,35.683 53.388,35.589 52.289,36.161C49.168,37.785 49.032,37.773 45.605,37.037ZM35.927,22.614C36.026,22.272 36.978,18.996 37.284,18.381C37.909,17.122 41.289,15.128 41.484,15.111C43.195,14.958 42.881,15.836 42.313,17.454C40.957,21.32 40.235,26.676 38.388,28.374C38.172,28.572 35.501,30.402 35.472,30.414C35.173,30.534 34.788,30.641 34.507,30.482C33.458,29.888 33.807,29.602 34.206,28.454C35.206,25.571 35.123,25.565 35.927,22.614ZM51.069,17.386C50.461,19.449 50.236,21.403 48.496,22.494C45.811,24.177 45.689,24.676 44.868,24.018C44.201,23.484 44.399,23.348 44.628,22.521C44.804,21.886 44.864,21.916 46.959,14.631C47.844,11.553 47.901,11.437 50.596,9.674C50.729,9.587 51.876,8.836 52.432,8.888C52.593,8.903 52.582,9.181 52.7,9.292C52.826,9.411 53.107,9.393 53.145,9.562C53.165,9.654 53.146,9.654 51.069,17.386Z" style="fill:white;fill-opacity:0.99;"/>
    </g>
</svg>
